<svg width="25" height="24" viewBox="0 0 25 24" fill="none" xmlns="http://www.w3.org/2000/svg">
<path fill-rule="evenodd" clip-rule="evenodd" d="M12.75 5.25003C8.66882 5.25003 5.11847 7.5169 3.29256 10.8556C2.90249 11.5689 2.90248 12.4311 3.29254 13.1443C5.11843 16.4831 8.66882 18.75 12.75 18.75C16.8312 18.75 20.3815 16.4832 22.2074 13.1445C22.5975 12.4312 22.5975 11.569 22.2075 10.8558C20.3816 7.51697 16.8312 5.25003 12.75 5.25003ZM12.75 9.75003C11.5074 9.75003 10.5 10.7574 10.5 12C10.5 13.2427 11.5074 14.25 12.75 14.25C13.4305 14.25 14.0404 13.948 14.4529 13.4706C13.7668 13.3328 13.25 12.7268 13.25 12C13.25 11.2733 13.7668 10.6673 14.4529 10.5294C14.0404 10.0521 13.4305 9.75003 12.75 9.75003ZM9 12C9 9.92896 10.6789 8.25003 12.75 8.25003C14.8211 8.25003 16.5 9.92896 16.5 12C16.5 14.0711 14.8211 15.75 12.75 15.75C10.6789 15.75 9 14.0711 9 12Z" fill="currentColor"/>
</svg>
