<svg width="25" height="24" viewBox="0 0 25 24" fill="none" xmlns="http://www.w3.org/2000/svg">
<path d="M21.5494 11.2156L22.2075 10.8558L21.5494 11.2156ZM21.5494 12.7846L22.2074 13.1445L21.5494 12.7846ZM3.95058 11.2155L4.6086 11.5753L3.95058 11.2155ZM3.95057 12.7845L3.29254 13.1443H3.29254L3.95057 12.7845ZM20.2736 8.3091C19.977 8.01993 19.5022 8.02593 19.213 8.3225C18.9238 8.61907 18.9298 9.0939 19.2264 9.38307L20.2736 8.3091ZM10.4363 16.9597C10.035 16.8568 9.62638 17.0986 9.5235 17.4999C9.42062 17.9011 9.66249 18.3098 10.0637 18.4127L10.4363 16.9597ZM15.354 6.34117L15.1599 7.06562L15.354 6.34117ZM7.82264 16.7089L7.45374 17.3619L8.25475 16.0959L7.82264 16.7089ZM4.6086 11.5753C6.18153 8.69922 9.2379 6.75003 12.75 6.75003V5.25003C8.66882 5.25003 5.11847 7.5169 3.29256 10.8556L4.6086 11.5753ZM20.8914 12.4247C19.3185 15.3008 16.2621 17.25 12.75 17.25V18.75C16.8312 18.75 20.3815 16.4832 22.2074 13.1445L20.8914 12.4247ZM20.8914 11.5755C21.0362 11.8402 21.0362 12.1599 20.8914 12.4247L22.2074 13.1445C22.5975 12.4312 22.5975 11.569 22.2075 10.8558L20.8914 11.5755ZM3.29256 10.8556C2.90249 11.5689 2.90248 12.4311 3.29254 13.1443L4.6086 12.4246C4.4638 12.1598 4.4638 11.8401 4.6086 11.5753L3.29256 10.8556ZM19.2264 9.38307C19.8847 10.0249 20.4474 10.7635 20.8914 11.5755L22.2075 10.8558C21.6913 9.91182 21.0376 9.05406 20.2736 8.3091L19.2264 9.38307ZM12.75 17.25C11.9502 17.25 11.1751 17.1491 10.4363 16.9597L10.0637 18.4127C10.9232 18.633 11.8235 18.75 12.75 18.75V17.25ZM12.75 6.75003C13.5846 6.75003 14.3923 6.85994 15.1599 7.06562L15.5481 5.61673C14.655 5.37742 13.7168 5.25003 12.75 5.25003V6.75003ZM6.67995 14.9904C5.84529 14.2678 5.14151 13.3991 4.6086 12.4246L3.29254 13.1443C3.91202 14.2771 4.72944 15.2858 5.69816 16.1245L6.67995 14.9904ZM8.19154 16.0559C7.65181 15.751 7.1456 15.3935 6.67995 14.9904L5.69816 16.1245C6.23873 16.5924 6.82659 17.0076 7.45374 17.3619L8.19154 16.0559ZM5.75695 16.1704L7.39054 17.3219L8.25475 16.0959L6.62116 14.9444L5.75695 16.1704ZM15.1599 7.06562C15.8769 7.25774 16.5596 7.53362 17.1971 7.88222L17.9168 6.56618C17.176 6.16103 16.3821 5.84019 15.5481 5.61673L15.1599 7.06562Z" fill="currentColor"/>
<path d="M20.2145 4.46437L5.21448 19.4644" stroke="currentColor" stroke-width="1.5" stroke-linecap="round" stroke-linejoin="round"/>
<path d="M9.75 12C9.75 10.3432 11.0931 9.00003 12.75 9.00003" stroke="currentColor" stroke-width="1.5" stroke-linecap="round"/>
</svg>
