<svg width="20" height="20" viewBox="0 0 20 20" fill="none" xmlns="http://www.w3.org/2000/svg">
<circle cx="2.5" cy="2.5" r="2.5" transform="matrix(-1 0 0 1 12.5 7.5)" stroke="currentColor" stroke-width="1.5"/>
<path d="M13.7501 4.11457L13.3751 4.76409V4.76409L13.7501 4.11457ZM13.75 15.8851L14.125 16.5346L14.125 16.5346L13.75 15.8851ZM6.25002 15.8851L5.87502 16.5346L5.87502 16.5346L6.25002 15.8851ZM6.25003 4.11457L6.62503 4.76409L6.25003 4.11457ZM2.50449 8.14059L2.00297 8.69824L2.50449 8.14059ZM4.51806 15.597L4.37317 14.8612L4.51806 15.597ZM3.60863 15.3477L4.18359 14.8661L3.60863 15.3477ZM8.0404 18.1016L7.86467 18.8307L8.0404 18.1016ZM7.41303 17.3964L6.68912 17.5925L7.41303 17.3964ZM12.587 17.3964L11.8631 17.2003L12.587 17.3964ZM11.9597 18.1016L12.1354 18.8307L11.9597 18.1016ZM15.482 15.597L15.3371 16.3329L15.482 15.597ZM17.8332 7.1499L17.1284 7.40639L17.8332 7.1499ZM17.4955 8.14059L16.994 7.58294L17.4955 8.14059ZM2.16678 12.8501L1.462 13.1066L2.16678 12.8501ZM2.50449 11.8594L2.00297 11.3017L2.50449 11.8594ZM15.4818 4.40269L15.337 3.66681L15.4818 4.40269ZM3.60886 4.65198L3.03393 4.17037L3.60886 4.65198ZM17.4955 11.8594L16.994 12.417L17.4955 11.8594ZM17.8332 12.8501L17.1284 12.5936L17.8332 12.8501ZM12.5871 2.6035L13.311 2.40732L12.5871 2.6035ZM11.9598 1.89841L11.7841 2.62753L11.9598 1.89841ZM11.8632 2.79969C12.0797 3.59837 12.601 4.31715 13.3751 4.76409L14.1251 3.46505C13.7079 3.22422 13.428 2.83907 13.311 2.40732L11.8632 2.79969ZM13.3751 4.76409C14.0831 5.17288 14.8829 5.28494 15.6267 5.13857L15.337 3.66681C14.9357 3.74578 14.507 3.68558 14.1251 3.46505L13.3751 4.76409ZM18.538 6.89341C18.1732 5.89111 17.6373 4.97171 16.9661 4.17039L15.8162 5.13361C16.3772 5.80334 16.8243 6.57086 17.1284 7.40639L18.538 6.89341ZM17.4166 9.99999C17.4166 9.48327 17.6396 9.01965 17.997 8.69824L16.994 7.58294C16.3336 8.1768 15.9166 9.0402 15.9166 9.99999H17.4166ZM17.997 11.3017C17.6396 10.9803 17.4166 10.5167 17.4166 9.99999H15.9166C15.9166 10.9598 16.3336 11.8232 16.994 12.417L17.997 11.3017ZM16.9663 15.8293C17.6374 15.0281 18.1733 14.1088 18.538 13.1066L17.1284 12.5936C16.8244 13.429 16.3773 14.1965 15.8164 14.8661L16.9663 15.8293ZM14.125 16.5346C14.507 16.3141 14.9357 16.2539 15.3371 16.3329L15.6268 14.8612C14.8831 14.7147 14.0832 14.8268 13.375 15.2356L14.125 16.5346ZM13.3109 17.5925C13.4279 17.1607 13.7079 16.7755 14.125 16.5346L13.375 15.2356C12.6008 15.6826 12.0795 16.4015 11.8631 17.2003L13.3109 17.5925ZM9.99999 19.0833C10.7346 19.0833 11.4498 18.996 12.1354 18.8307L11.7839 17.3725C11.2126 17.5102 10.6153 17.5833 9.99999 17.5833V19.0833ZM7.86467 18.8307C8.55023 18.996 9.26541 19.0833 9.99999 19.0833V17.5833C9.38469 17.5833 8.78746 17.5102 8.21613 17.3725L7.86467 18.8307ZM5.87502 16.5346C6.2922 16.7755 6.57214 17.1607 6.68912 17.5925L8.13693 17.2003C7.92053 16.4015 7.39924 15.6826 6.62502 15.2356L5.87502 16.5346ZM4.66295 16.3329C5.06429 16.2539 5.49301 16.3141 5.87502 16.5346L6.62502 15.2356C5.91689 14.8268 5.11696 14.7147 4.37317 14.8612L4.66295 16.3329ZM1.462 13.1066C1.82673 14.1088 2.36255 15.0281 3.03368 15.8293L4.18359 14.8661C3.62267 14.1965 3.1756 13.429 2.87156 12.5936L1.462 13.1066ZM2.58335 9.99999C2.58335 10.5167 2.36035 10.9803 2.00297 11.3017L3.00601 12.417C3.66634 11.8232 4.08335 10.9598 4.08335 9.99999H2.58335ZM2.00297 8.69824C2.36035 9.01965 2.58335 9.48327 2.58335 9.99999H4.08335C4.08335 9.0402 3.66634 8.1768 3.00601 7.58293L2.00297 8.69824ZM3.03393 4.17037C2.36268 4.97168 1.82678 5.89109 1.462 6.8934L2.87156 7.40638C3.17564 6.57085 3.62278 5.80332 4.1838 5.13359L3.03393 4.17037ZM5.87503 3.46505C5.49304 3.68559 5.06437 3.74579 4.66305 3.6668L4.37336 5.13856C5.11709 5.28495 5.91695 5.1729 6.62503 4.76409L5.87503 3.46505ZM6.68909 2.4073C6.57208 2.83906 6.29216 3.22422 5.87503 3.46505L6.62503 4.76409C7.39915 4.31715 7.92041 3.59836 8.13686 2.79966L6.68909 2.4073ZM9.99999 0.916656C9.26538 0.916656 8.55017 1.00402 7.86459 1.16926L8.21606 2.6275C8.78741 2.48979 9.38466 2.41666 9.99999 2.41666V0.916656ZM12.1355 1.16929C11.4499 1.00403 10.7347 0.916656 9.99999 0.916656V2.41666C10.6154 2.41666 11.2127 2.4898 11.7841 2.62753L12.1355 1.16929ZM8.13686 2.79966C8.15809 2.72132 8.18912 2.66708 8.21275 2.63875C8.23305 2.6144 8.23495 2.62294 8.21606 2.6275L7.86459 1.16926C7.16277 1.33841 6.81453 1.94442 6.68909 2.4073L8.13686 2.79966ZM3.00601 7.58293C2.93727 7.52111 2.89753 7.45812 2.88165 7.41648C2.86824 7.38135 2.87912 7.38561 2.87156 7.40638L1.462 6.8934C1.18247 7.66149 1.60976 8.34461 2.00297 8.69824L3.00601 7.58293ZM4.37317 14.8612C4.29372 14.8768 4.23146 14.8731 4.19558 14.8644C4.16472 14.857 4.1713 14.8515 4.18359 14.8661L3.03368 15.8293C3.49635 16.3817 4.19249 16.4255 4.66295 16.3329L4.37317 14.8612ZM8.21613 17.3725C8.23502 17.3771 8.23312 17.3856 8.21282 17.3612C8.18919 17.3329 8.15816 17.2787 8.13693 17.2003L6.68912 17.5925C6.81454 18.0555 7.16278 18.6616 7.86467 18.8307L8.21613 17.3725ZM11.8631 17.2003C11.8419 17.2786 11.8109 17.3329 11.7872 17.3612C11.7669 17.3856 11.765 17.377 11.7839 17.3725L12.1354 18.8307C12.8373 18.6616 13.1855 18.0555 13.3109 17.5925L11.8631 17.2003ZM15.8164 14.8661C15.8287 14.8514 15.8353 14.857 15.8044 14.8644C15.7685 14.873 15.7063 14.8768 15.6268 14.8612L15.3371 16.3329C15.8075 16.4255 16.5037 16.3817 16.9663 15.8293L15.8164 14.8661ZM17.1284 7.40639C17.1209 7.38562 17.1317 7.38136 17.1183 7.41649C17.1025 7.45812 17.0627 7.52112 16.994 7.58294L17.997 8.69824C18.3902 8.34461 18.8175 7.66149 18.538 6.89341L17.1284 7.40639ZM2.87156 12.5936C2.87912 12.6144 2.86824 12.6186 2.88165 12.5835C2.89753 12.5419 2.93727 12.4789 3.00601 12.417L2.00297 11.3017C1.60976 11.6554 1.18247 12.3385 1.462 13.1066L2.87156 12.5936ZM15.6267 5.13857C15.7061 5.12294 15.7683 5.1267 15.8042 5.13531C15.8351 5.14272 15.8285 5.14829 15.8162 5.13361L16.9661 4.17039C16.5034 3.61811 15.8074 3.57423 15.337 3.66681L15.6267 5.13857ZM4.1838 5.13359C4.17151 5.14826 4.16493 5.1427 4.19579 5.13529C4.23166 5.12668 4.29391 5.12292 4.37336 5.13856L4.66305 3.6668C4.19263 3.5742 3.49657 3.61807 3.03393 4.17037L4.1838 5.13359ZM16.994 12.417C17.0627 12.4789 17.1025 12.5419 17.1183 12.5835C17.1317 12.6186 17.1209 12.6144 17.1284 12.5936L18.538 13.1066C18.8175 12.3385 18.3902 11.6554 17.997 11.3017L16.994 12.417ZM13.311 2.40732C13.1856 1.94444 12.8373 1.33845 12.1355 1.16929L11.7841 2.62753C11.7652 2.62298 11.7671 2.61443 11.7874 2.63878C11.811 2.66711 11.842 2.72135 11.8632 2.79969L13.311 2.40732Z" fill="currentColor"/>
</svg>
