<svg width="20" height="20" viewBox="0 0 20 20" fill="none" xmlns="http://www.w3.org/2000/svg">
<ellipse cx="2.83688" cy="2.83688" rx="2.83688" ry="2.83688" transform="matrix(-1 0 0 1 13.0142 4.16663)" stroke="currentColor" stroke-width="1.5"/>
<path d="M5.21277 14.0495C5.21277 13.4393 5.59635 12.895 6.17099 12.6898V12.6898C8.76173 11.7645 11.5929 11.7645 14.1836 12.6898V12.6898C14.7583 12.895 15.1418 13.4393 15.1418 14.0495V14.9825C15.1418 15.8246 14.396 16.4715 13.5623 16.3524L13.2843 16.3127C11.2234 16.0183 9.13118 16.0183 7.07031 16.3127L6.79235 16.3524C5.95866 16.4715 5.21277 15.8246 5.21277 14.9825V14.0495Z" stroke="currentColor" stroke-width="1.5"/>
<path d="M14.4326 9.91889C15.6636 9.91889 16.6616 8.92094 16.6616 7.68991C16.6616 6.45888 15.6636 5.46094 14.4326 5.46094" stroke="currentColor" stroke-width="1.5" stroke-linecap="round"/>
<path d="M16.8738 15.0042L17.0922 15.0354C17.7473 15.1289 18.3333 14.6207 18.3333 13.959V13.2259C18.3333 12.7465 18.0319 12.3188 17.5804 12.1575C17.1301 11.9967 16.6704 11.8714 16.2057 11.7818" stroke="currentColor" stroke-width="1.5" stroke-linecap="round"/>
<path d="M5.56739 9.91889C4.33636 9.91889 3.33841 8.92094 3.33841 7.68991C3.33841 6.45888 4.33636 5.46094 5.56739 5.46094" stroke="currentColor" stroke-width="1.5" stroke-linecap="round"/>
<path d="M3.12618 15.0042L2.90778 15.0354C2.25274 15.1289 1.66668 14.6207 1.66668 13.959V13.2259C1.66668 12.7465 1.96807 12.3188 2.41957 12.1575C2.86995 11.9967 3.32957 11.8714 3.79434 11.7818" stroke="currentColor" stroke-width="1.5" stroke-linecap="round"/>
</svg>
