<svg width="130" height="56" viewBox="0 0 130 56" fill="none" xmlns="http://www.w3.org/2000/svg">
<path d="M53.9407 38.5268C52.0129 38.5268 50.3018 38.0828 48.8072 37.1946C47.3343 36.3067 46.1864 35.0936 45.3632 33.5557C44.5403 32.0179 44.1286 30.3068 44.1286 28.4224C44.1286 26.3647 44.616 24.5019 45.5908 22.8341C46.587 21.1662 47.9192 19.8558 49.5871 18.9028C51.2764 17.9497 53.1501 17.4732 55.2079 17.4732C57.1789 17.4732 58.9009 17.9064 60.3738 18.7728C61.8466 19.6392 62.9837 20.8413 63.7851 22.3792C64.5865 23.8954 64.9873 25.6066 64.9873 27.5126C64.9873 29.6571 64.4783 31.5631 63.4603 33.231C62.4639 34.8988 61.1211 36.1982 59.4315 37.1296C57.7637 38.0611 55.9334 38.5268 53.9407 38.5268ZM55.3703 37.682C56.9081 37.682 58.2401 37.3246 59.3665 36.6099C60.5146 35.8735 61.3917 34.8445 61.9982 33.5233C62.6048 32.202 62.908 30.675 62.908 28.9422C62.908 26.9494 62.5181 25.1409 61.7384 23.5164C60.9802 21.8918 59.908 20.6139 58.5218 19.6825C57.1572 18.7295 55.6194 18.253 53.9083 18.253C52.4137 18.253 51.0816 18.6104 49.912 19.3251C48.7424 20.0399 47.8216 21.0688 47.1502 22.4117C46.5005 23.733 46.1755 25.2816 46.1755 27.0578C46.1755 29.0289 46.5763 30.8267 47.3778 32.4511C48.1792 34.0757 49.273 35.3536 50.6591 36.285C52.0672 37.2164 53.6374 37.682 55.3703 37.682Z" fill="#D8D8D8"/>
<path d="M48.8072 37.1946L48.6204 37.5047L48.6213 37.5053L48.6224 37.506L48.8072 37.1946ZM45.3633 33.5557L45.0441 33.7266L45.3633 33.5557ZM45.5908 22.8341L45.28 22.6484L45.2791 22.6499L45.2782 22.6514L45.5908 22.8341ZM49.5871 18.9027L49.4091 18.5874L49.4082 18.5879L49.4075 18.5884L49.5871 18.9027ZM60.3738 18.7728L60.1902 19.0849L60.3738 18.7728ZM63.7851 22.3792L63.4642 22.5465L63.4647 22.5474L63.4651 22.5484L63.7851 22.3792ZM63.4604 33.231L63.1513 33.0423L63.1504 33.0438L63.1495 33.0452L63.4604 33.231ZM59.4315 37.1296L59.2568 36.8127L59.2559 36.813L59.255 36.8136L59.4315 37.1296ZM59.3665 36.6099L59.5606 36.9155L59.5613 36.9151L59.562 36.9146L59.3665 36.6099ZM61.7384 23.5163L61.4102 23.6695L61.4111 23.6712L61.412 23.673L61.7384 23.5163ZM58.5218 19.6825L58.3146 19.9793L58.3173 19.9812L58.32 19.983L58.5218 19.6825ZM49.912 19.3251L49.7232 19.0162L49.912 19.3251ZM47.1502 22.4117L46.8265 22.2498L46.826 22.2508L46.8254 22.2519L47.1502 22.4117ZM47.3778 32.4511L47.7024 32.2909L47.3778 32.4511ZM50.6591 36.2849L50.4573 36.5855L50.4584 36.5862L50.4595 36.5869L50.6591 36.2849ZM53.9407 38.1648C52.0708 38.1648 50.4249 37.7346 48.9922 36.8834L48.6224 37.506C50.1789 38.4307 51.9551 38.8889 53.9407 38.8889V38.1648ZM48.9942 36.8847C47.578 36.0308 46.4753 34.8662 45.6826 33.385L45.0441 33.7266C45.8975 35.3211 47.0908 36.5826 48.6204 37.5047L48.9942 36.8847ZM45.6826 33.385C44.8899 31.9038 44.4907 30.2521 44.4907 28.4224H43.7666C43.7666 30.3614 44.1907 32.1321 45.0441 33.7266L45.6826 33.385ZM44.4907 28.4224C44.4907 26.4246 44.9632 24.6255 45.9033 23.0167L45.2782 22.6514C44.2689 24.3782 43.7666 26.3047 43.7666 28.4224H44.4907ZM45.9016 23.0197C46.8664 21.4047 48.1535 20.1389 49.7667 19.2171L49.4075 18.5884C47.6848 19.5727 46.3079 20.9277 45.28 22.6484L45.9016 23.0197ZM49.7648 19.2181C51.3968 18.2976 53.2086 17.8352 55.2079 17.8352V17.1111C53.0916 17.1111 51.1562 17.6019 49.4091 18.5874L49.7648 19.2181ZM55.2079 17.8352C57.1245 17.8352 58.7811 18.2559 60.1902 19.0849L60.5573 18.4607C59.0208 17.5568 57.2334 17.1111 55.2079 17.1111V17.8352ZM60.1902 19.0849C61.6037 19.9163 62.6935 21.0679 63.4642 22.5465L64.1063 22.2119C63.2741 20.6148 62.0896 19.3621 60.5573 18.4607L60.1902 19.0849ZM63.4651 22.5484C64.2361 24.0068 64.6253 25.6588 64.6253 27.5126H65.3494C65.3494 25.5542 64.9372 23.7839 64.1054 22.21L63.4651 22.5484ZM64.6253 27.5126C64.6253 29.5971 64.1313 31.4368 63.1513 33.0423L63.7694 33.4196C64.8253 31.6895 65.3494 29.7168 65.3494 27.5126H64.6253ZM63.1495 33.0452C62.1857 34.6584 60.8897 35.9124 59.2568 36.8127L59.6064 37.4468C61.3524 36.4843 62.742 35.139 63.7712 33.4165L63.1495 33.0452ZM59.255 36.8136C57.6435 37.7135 55.8744 38.1648 53.9407 38.1648V38.8889C55.9925 38.8889 57.8839 38.4086 59.608 37.4459L59.255 36.8136ZM55.3703 38.044C56.9661 38.044 58.3678 37.6725 59.5606 36.9155L59.1726 36.3041C58.1127 36.9768 56.8502 37.3199 55.3703 37.3199V38.044ZM59.562 36.9146C60.7722 36.1383 61.6939 35.0543 62.3273 33.6743L61.6692 33.3723C61.0896 34.6349 60.2568 35.6086 59.171 36.305L59.562 36.9146ZM62.3273 33.6743C62.9593 32.2974 63.2701 30.7173 63.2701 28.9422H62.546C62.546 30.6328 62.2502 32.1066 61.6692 33.3723L62.3273 33.6743ZM63.2701 28.9422C63.2701 26.901 62.8704 25.0381 62.0648 23.3597L61.412 23.673C62.1658 25.2436 62.546 26.9979 62.546 28.9422H63.2701ZM62.0664 23.3632C61.2826 21.6836 60.1687 20.3528 58.7237 19.382L58.32 19.983C59.6475 20.875 60.6779 22.1001 61.4102 23.6695L62.0664 23.3632ZM58.7291 19.3857C57.3019 18.3889 55.6912 17.8909 53.9083 17.8909V18.615C55.5475 18.615 57.0126 19.07 58.3146 19.9793L58.7291 19.3857ZM53.9083 17.8909C52.3532 17.8909 50.9548 18.2635 49.7232 19.0162L50.1007 19.634C51.2084 18.9571 52.4741 18.615 53.9083 18.615V17.8909ZM49.7232 19.0162C48.4902 19.7697 47.5253 20.8521 46.8265 22.2498L47.4741 22.5736C48.1182 21.2854 48.9944 20.3101 50.1007 19.634L49.7232 19.0162ZM46.8254 22.2519C46.1466 23.6321 45.8135 25.2375 45.8135 27.0578H46.5376C46.5376 25.3258 46.8544 23.8338 47.4752 22.5715L46.8254 22.2519ZM45.8135 27.0578C45.8135 29.0794 46.225 30.9328 47.053 32.6113L47.7024 32.2909C46.9277 30.7206 46.5376 28.9782 46.5376 27.0578H45.8135ZM47.053 32.6113C47.88 34.2876 49.0141 35.6159 50.4573 36.5855L50.8612 35.9844C49.5317 35.0912 48.4783 33.8637 47.7024 32.2909L47.053 32.6113ZM50.4595 36.5869C51.9282 37.5585 53.5685 38.044 55.3703 38.044V37.3199C53.7066 37.3199 52.206 36.874 50.859 35.983L50.4595 36.5869Z" fill="#D8D8D8"/>
<path d="M70.7427 38.2886V29.8439H76.2945L81.7003 38.2886H84.5347L78.8074 29.4641C81.262 28.9089 83.6288 27.0097 83.6288 23.62C83.6288 19.6168 80.9698 17.4253 76.2945 17.4253H68.2589V38.2886H70.7427ZM70.7427 27.7401V19.5291H76.1484C79.3042 19.5291 81.0866 20.9902 81.0866 23.62C81.0866 26.3375 79.3042 27.7401 76.1484 27.7401H70.7427Z" fill="#D8D8D8"/>
<path d="M70.7427 38.2886V38.3347H70.7888V38.2886H70.7427ZM70.7427 29.8439V29.7977H70.6965V29.8439H70.7427ZM76.2945 29.8439L76.3334 29.8191L76.3198 29.7977H76.2945V29.8439ZM81.7003 38.2886L81.6613 38.3136L81.6751 38.3347H81.7003V38.2886ZM84.5347 38.2886V38.3347H84.6197L84.5734 38.2634L84.5347 38.2886ZM78.8074 29.4641L78.7973 29.419L78.7326 29.4336L78.7686 29.4892L78.8074 29.4641ZM68.2589 17.4252V17.3791H68.2127V17.4252H68.2589ZM68.2589 38.2886H68.2127V38.3347H68.2589V38.2886ZM70.7427 27.7401H70.6965V27.7863H70.7427V27.7401ZM70.7427 19.5291V19.4829H70.6965V19.5291H70.7427ZM70.7888 38.2886V29.8439H70.6965V38.2886H70.7888ZM70.7427 29.8902H76.2945V29.7977H70.7427V29.8902ZM76.2556 29.8688L81.6613 38.3136L81.7392 38.2638L76.3334 29.8191L76.2556 29.8688ZM81.7003 38.3347H84.5347V38.2424H81.7003V38.3347ZM84.5734 38.2634L78.8461 29.4389L78.7686 29.4892L84.4959 38.3137L84.5734 38.2634ZM78.8177 29.5091C81.2873 28.9505 83.6749 27.0366 83.6749 23.62H83.5826C83.5826 26.9825 81.2366 28.8672 78.7973 29.419L78.8177 29.5091ZM83.6749 23.62C83.6749 21.6075 83.0062 20.0447 81.7446 18.986C80.4843 17.9284 78.6387 17.3791 76.2945 17.3791V17.4714C78.6256 17.4714 80.4472 18.0179 81.6852 19.0568C82.922 20.0946 83.5826 21.6293 83.5826 23.62H83.6749ZM76.2945 17.3791H68.2589V17.4714H76.2945V17.3791ZM68.2127 17.4252V38.2886H68.3051V17.4252H68.2127ZM68.2589 38.3347H70.7427V38.2424H68.2589V38.3347ZM70.7888 27.7401V19.5291H70.6965V27.7401H70.7888ZM70.7427 19.5753H76.1484V19.4829H70.7427V19.5753ZM76.1484 19.5753C77.7199 19.5753 78.9426 19.9392 79.7716 20.624C80.5992 21.3076 81.0404 22.3162 81.0404 23.62H81.1329C81.1329 22.2939 80.6829 21.257 79.8304 20.5527C78.9792 19.8496 77.7326 19.4829 76.1484 19.4829V19.5753ZM81.0404 23.62C81.0404 24.968 80.5989 25.9836 79.7716 26.6633C78.9428 27.3444 77.7203 27.6939 76.1484 27.6939V27.7863C77.7322 27.7863 78.9788 27.4343 79.8302 26.7348C80.6832 26.0339 81.1329 24.9895 81.1329 23.62H81.0404ZM76.1484 27.6939H70.7427V27.7863H76.1484V27.6939Z" fill="#D8D8D8"/>
<path d="M90.4544 17.4253H87.3571V38.2886H89.8115V20.4934H89.87L101.733 38.2886H104.071V17.4253H101.646V34.0809H101.587L90.4544 17.4253Z" fill="#D8D8D8"/>
<path d="M90.4544 17.4252L90.4929 17.3996L90.4792 17.3791H90.4544V17.4252ZM87.3571 17.4252V17.3791H87.311V17.4252H87.3571ZM87.3571 38.2886H87.311V38.3347H87.3571V38.2886ZM89.8115 38.2886V38.3347H89.8579V38.2886H89.8115ZM89.8115 20.4934V20.4472H89.7654V20.4934H89.8115ZM89.87 20.4934L89.9086 20.4678L89.8948 20.4472H89.87V20.4934ZM101.733 38.2886L101.695 38.3143L101.709 38.3347H101.733V38.2886ZM104.071 38.2886V38.3347H104.117V38.2886H104.071ZM104.071 17.4252H104.117V17.3791H104.071V17.4252ZM101.646 17.4252V17.3791H101.6V17.4252H101.646ZM101.646 34.0809V34.127H101.692V34.0809H101.646ZM101.587 34.0809L101.549 34.1066L101.563 34.127H101.587V34.0809ZM90.4544 17.3791H87.3571V17.4714H90.4544V17.3791ZM87.311 17.4252V38.2886H87.4033V17.4252H87.311ZM87.3571 38.3347H89.8115V38.2424H87.3571V38.3347ZM89.8579 38.2886V20.4934H89.7654V38.2886H89.8579ZM89.8115 20.5396H89.87V20.4472H89.8115V20.5396ZM89.8316 20.519L101.695 38.3143L101.772 38.2631L89.9086 20.4678L89.8316 20.519ZM101.733 38.3347H104.071V38.2424H101.733V38.3347ZM104.117 38.2886V17.4252H104.025V38.2886H104.117ZM104.071 17.3791H101.646V17.4714H104.071V17.3791ZM101.6 17.4252V34.0809H101.692V17.4252H101.6ZM101.646 34.0347H101.587V34.127H101.646V34.0347ZM101.626 34.0552L90.4929 17.3996L90.416 17.4509L101.549 34.1066L101.626 34.0552Z" fill="#D8D8D8"/>
<path d="M34.1982 38.2886C38.815 38.2886 41.5325 36.2725 41.5325 32.4446C41.5325 29.99 39.9254 28.0908 37.354 27.4479C39.1364 26.9219 40.5974 24.9349 40.5974 23.0064C40.5974 19.3538 37.9091 17.4253 33.2631 17.4253H25.9288V38.2886H34.1982ZM28.4125 26.6297V19.4707H33.4384C36.5358 19.4707 38.0553 20.7272 38.0553 23.0356C38.0553 25.3148 36.5066 26.6297 33.4092 26.6297H28.4125ZM28.4125 28.5875H34.0228C37.2079 28.5875 39.0195 30.0484 39.0195 32.4446C39.0195 34.8407 37.2663 36.2433 34.0813 36.2433H28.4125V28.5875Z" fill="#D8D8D8"/>
<path d="M37.354 27.4479L37.3409 27.4036L37.1783 27.4515L37.3427 27.4926L37.354 27.4479ZM25.9288 17.4252V17.3791H25.8826V17.4252H25.9288ZM25.9288 38.2886H25.8826V38.3347H25.9288V38.2886ZM28.4125 26.6297H28.3663V26.6758H28.4125V26.6297ZM28.4125 19.4707V19.4245H28.3663V19.4707H28.4125ZM28.4125 28.5875V28.5413H28.3663V28.5875H28.4125ZM28.4125 36.2433H28.3663V36.2895H28.4125V36.2433ZM34.1982 38.3347C36.5124 38.3347 38.3575 37.8297 39.6251 36.8385C40.8944 35.8459 41.5786 34.3705 41.5786 32.4445H41.4863C41.4863 34.3465 40.8118 35.7932 39.5682 36.7657C38.3228 37.7395 36.5007 38.2424 34.1982 38.2424V38.3347ZM41.5786 32.4445C41.5786 29.9662 39.9544 28.0504 37.3652 27.403L37.3427 27.4926C39.8963 28.1311 41.4863 30.0138 41.4863 32.4445H41.5786ZM37.367 27.4921C38.2698 27.2258 39.0885 26.5904 39.6814 25.7803C40.2743 24.9702 40.6436 23.9819 40.6436 23.0063H40.5512C40.5512 23.9593 40.1901 24.9288 39.6068 25.7258C39.0236 26.5228 38.2206 27.144 37.3409 27.4036L37.367 27.4921ZM40.6436 23.0063C40.6436 21.1674 39.9661 19.7576 38.7002 18.8091C37.4364 17.8622 35.5915 17.3791 33.2631 17.3791V17.4714C35.5807 17.4714 37.403 17.9526 38.6448 18.883C39.8846 19.812 40.5512 21.1927 40.5512 23.0063H40.6436ZM33.2631 17.3791H25.9288V17.4714H33.2631V17.3791ZM25.8826 17.4252V38.2886H25.9749V17.4252H25.8826ZM25.9288 38.3347H34.1982V38.2424H25.9288V38.3347ZM28.4587 26.6297V19.4707H28.3663V26.6297H28.4587ZM28.4125 19.5168H33.4384V19.4245H28.4125V19.5168ZM33.4384 19.5168C34.982 19.5168 36.1243 19.8301 36.8798 20.4238C37.6334 21.0159 38.0091 21.8923 38.0091 23.0356H38.1014C38.1014 21.8704 37.7174 20.9644 36.9369 20.3511C36.1584 19.7395 34.9922 19.4245 33.4384 19.4245V19.5168ZM38.0091 23.0356C38.0091 24.1638 37.6263 25.0478 36.865 25.6511C36.102 26.2558 34.9523 26.5835 33.4092 26.5835V26.6758C34.9634 26.6758 36.1368 26.3462 36.9224 25.7235C37.7098 25.0995 38.1014 24.1865 38.1014 23.0356H38.0091ZM33.4092 26.5835H28.4125V26.6758H33.4092V26.5835ZM28.4125 28.6337H34.0228V28.5413H28.4125V28.6337ZM34.0228 28.6337C35.609 28.6337 36.8469 28.9975 37.6871 29.654C38.5259 30.3091 38.9733 31.2593 38.9733 32.4445H39.0657C39.0657 31.2336 38.6073 30.2553 37.744 29.581C36.8822 28.9079 35.6217 28.5413 34.0228 28.5413V28.6337ZM38.9733 32.4445C38.9733 33.6301 38.5402 34.5657 37.7164 35.206C36.891 35.8476 35.6679 36.1969 34.0813 36.1969V36.2895C35.6797 36.2895 36.9257 35.9375 37.7731 35.2789C38.6222 34.6189 39.0657 33.6549 39.0657 32.4445H38.9733ZM34.0813 36.1969H28.4125V36.2895H34.0813V36.1969ZM28.4587 36.2433V28.5875H28.3663V36.2433H28.4587Z" fill="#D8D8D8"/>
</svg>
