<svg width="20" height="16" viewBox="0 0 20 16" fill="none" xmlns="http://www.w3.org/2000/svg">
<path fill-rule="evenodd" clip-rule="evenodd" d="M19.3164 3.59147L17.5664 2.84147L18.4831 0.841471L16.3497 1.5498C15.6702 0.916412 14.7786 0.559758 13.8497 0.549805C11.7806 0.554388 10.1043 2.23064 10.0997 4.2998V5.13314C7.14974 5.74147 4.57474 4.13314 2.18307 1.38314C1.76641 3.60536 2.18307 5.27203 3.43307 6.38314L0.691406 5.96647C0.910009 7.78812 2.40153 9.1919 4.23307 9.29981L1.94141 10.1331C2.77474 11.7998 4.29141 12.0581 6.31641 12.2165C4.66126 13.3454 2.69438 13.9282 0.691406 13.8831C11.3247 18.6081 17.5664 11.6665 17.5664 5.5498V4.85814L19.3164 3.59147Z" stroke="white" stroke-linecap="round" stroke-linejoin="round"/>
</svg>
