<svg width="20" height="20" viewBox="0 0 20 20" fill="none" xmlns="http://www.w3.org/2000/svg">
<path d="M0.617188 6.625C0.617188 3.31129 3.30348 0.625 6.61719 0.625H13.3672C16.6809 0.625 19.3672 3.31129 19.3672 6.625V13.375C19.3672 16.6887 16.6809 19.375 13.3672 19.375H6.61719C3.30348 19.375 0.617188 16.6887 0.617188 13.375V6.625Z" stroke="white" stroke-linecap="round" stroke-linejoin="round"/>
<path fill-rule="evenodd" clip-rule="evenodd" d="M9.99219 14.1667C12.2934 14.1667 14.1589 12.3012 14.1589 10C14.1589 7.69881 12.2934 5.83333 9.99219 5.83333C7.691 5.83333 5.82552 7.69881 5.82552 10C5.82552 12.3012 7.691 14.1667 9.99219 14.1667Z" stroke="white" stroke-linecap="round" stroke-linejoin="round"/>
<path fill-rule="evenodd" clip-rule="evenodd" d="M16.1172 4.29167C16.1172 4.52179 15.9306 4.70833 15.7005 4.70833C15.4704 4.70833 15.2839 4.52179 15.2839 4.29167" stroke="white" stroke-linecap="round" stroke-linejoin="round"/>
<path fill-rule="evenodd" clip-rule="evenodd" d="M15.2839 4.29167C15.2839 4.06155 15.4704 3.875 15.7005 3.875C15.9306 3.875 16.1172 4.06155 16.1172 4.29167" stroke="white" stroke-linecap="round" stroke-linejoin="round"/>
</svg>
