<svg width="94" height="45" viewBox="0 0 94 45" fill="none" xmlns="http://www.w3.org/2000/svg">
<path d="M6.13997 11H1.76251V3.14742H6.13997V3.95846H2.6756V6.48826H5.9305V7.29392H2.6756V10.1836H6.13997V11ZM15.7794 11H14.7374L10.4459 4.40963H10.4029C10.4602 5.18307 10.4889 5.89206 10.4889 6.5366V11H9.6456V3.14742H10.6769L14.9576 9.71093H15.0006C14.9934 9.61425 14.9773 9.30452 14.9523 8.78173C14.9272 8.25536 14.9183 7.87938 14.9254 7.65379V3.14742H15.7794V11ZM25.6606 11H24.7475V7.30467H20.6117V11H19.6986V3.14742H20.6117V6.48826H24.7475V3.14742H25.6606V11ZM34.5158 11L33.5383 8.50243H30.3908L29.424 11H28.5002L31.6047 3.11519H32.3728L35.4612 11H34.5158ZM33.2536 7.68065L32.3405 5.24753C32.2224 4.93958 32.1006 4.56181 31.9753 4.11422C31.8965 4.45797 31.7837 4.83574 31.6369 5.24753L30.7131 7.68065H33.2536ZM44.4346 11H43.3926L39.1011 4.40963H39.0581C39.1154 5.18307 39.144 5.89206 39.144 6.5366V11H38.3008V3.14742H39.332L43.6128 9.71093H43.6558C43.6486 9.61425 43.6325 9.30452 43.6074 8.78173C43.5824 8.25536 43.5734 7.87938 43.5806 7.65379V3.14742H44.4346V11ZM51.7161 3.85103C50.8532 3.85103 50.171 4.13928 49.6697 4.71578C49.172 5.2887 48.9231 6.07468 48.9231 7.07371C48.9231 8.10138 49.163 8.89631 49.6429 9.45849C50.1263 10.0171 50.8138 10.2964 51.7054 10.2964C52.2532 10.2964 52.8781 10.1979 53.5799 10.001V10.8013C53.0356 11.0054 52.3642 11.1074 51.5657 11.1074C50.4091 11.1074 49.5157 10.7565 48.8855 10.0547C48.2589 9.35286 47.9456 8.35562 47.9456 7.06297C47.9456 6.25372 48.096 5.54473 48.3968 4.936C48.7011 4.32727 49.138 3.85819 49.7073 3.52877C50.2802 3.19934 50.9534 3.03462 51.7269 3.03462C52.5504 3.03462 53.2702 3.18501 53.886 3.4858L53.4993 4.26998C52.9049 3.99068 52.3105 3.85103 51.7161 3.85103ZM61.4308 11H57.0533V3.14742H61.4308V3.95846H57.9664V6.48826H61.2213V7.29392H57.9664V10.1836H61.4308V11ZM71.2045 6.99851C71.2045 8.29474 70.8518 9.28661 70.1464 9.97412C69.4445 10.658 68.433 11 67.1117 11H64.9364V3.14742H67.3426C68.5637 3.14742 69.5126 3.4858 70.1893 4.16256C70.8661 4.83932 71.2045 5.78464 71.2045 6.99851ZM70.2377 7.03074C70.2377 6.00664 69.9799 5.23499 69.4642 4.71578C68.9522 4.19658 68.1895 3.93697 67.1761 3.93697H65.8495V10.2104H66.9613C68.0498 10.2104 68.868 9.94368 69.4159 9.41015C69.9638 8.87303 70.2377 8.0799 70.2377 7.03074ZM79.3383 3.14742H81.5566C82.5986 3.14742 83.3523 3.30318 83.8178 3.6147C84.2833 3.92623 84.5161 4.41858 84.5161 5.09176C84.5161 5.55726 84.3854 5.94219 84.124 6.24655C83.8662 6.54734 83.4884 6.74249 82.9907 6.83201V6.88572C84.1831 7.08982 84.7793 7.71645 84.7793 8.76561C84.7793 9.46744 84.5411 10.0153 84.0649 10.4092C83.5922 10.8031 82.9298 11 82.0776 11H79.3383V3.14742ZM80.2514 6.50974H81.7553C82.3998 6.50974 82.8636 6.40948 83.1464 6.20896C83.4293 6.00485 83.5708 5.66289 83.5708 5.18307C83.5708 4.74264 83.4132 4.42574 83.0981 4.23238C82.783 4.03544 82.2817 3.93697 81.5942 3.93697H80.2514V6.50974ZM80.2514 7.28318V10.2212H81.8896C82.5234 10.2212 82.9996 10.0994 83.3183 9.85595C83.6406 9.60888 83.8017 9.22395 83.8017 8.70116C83.8017 8.21418 83.637 7.8561 83.3076 7.62693C82.9817 7.39777 82.484 7.28318 81.8144 7.28318H80.2514ZM90.2292 7.07371L92.324 3.14742H93.3122L90.6911 7.95457V11H89.7673V7.99754L87.1516 3.14742H88.1506L90.2292 7.07371Z" fill="#666666"/>
<path d="M33.8706 44.1672C31.6419 44.1672 29.6638 43.6538 27.936 42.6272C26.2333 41.6005 24.9062 40.1983 23.9546 38.4204C23.0031 36.6426 22.5273 34.6644 22.5273 32.4859C22.5273 30.1071 23.0907 27.9537 24.2176 26.0255C25.3694 24.0975 26.9094 22.5825 28.8375 21.4807C30.7906 20.379 32.9566 19.8281 35.3354 19.8281C37.6142 19.8281 39.6045 20.3289 41.3075 21.3305C43.0101 22.3321 44.3249 23.7218 45.2514 25.4997C46.1779 27.2525 46.6409 29.2307 46.6409 31.4342C46.6409 33.9132 46.0524 36.1167 44.8758 38.0448C43.7237 39.9729 42.1715 41.4753 40.2183 42.5521C38.2902 43.6288 36.1744 44.1672 33.8706 44.1672ZM35.5233 43.1906C37.3011 43.1906 38.8411 42.7774 40.1432 41.9511C41.4702 41.0997 42.4842 39.9103 43.1855 38.3829C43.8867 36.8554 44.237 35.0901 44.237 33.0869C44.237 30.7832 43.7863 28.6923 42.8851 26.8143C42.0084 24.9363 40.7689 23.4589 39.1664 22.3822C37.5889 21.2804 35.8111 20.7296 33.833 20.7296C32.1052 20.7296 30.5652 21.1427 29.2131 21.969C27.8609 22.7954 26.7967 23.9848 26.0205 25.5373C25.2692 27.0647 24.8936 28.8551 24.8936 30.9084C24.8936 33.187 25.3569 35.2654 26.2834 37.1434C27.2099 39.0214 28.4744 40.4988 30.0769 41.5755C31.7045 42.6522 33.5199 43.1906 35.5233 43.1906Z" fill="#666666"/>
<path d="M27.9352 42.6244L27.6865 43.0368L27.6878 43.0376L27.6892 43.0384L27.9352 42.6244ZM23.9538 38.4176L23.5292 38.6449L23.9538 38.4176ZM24.2167 26.0228L23.8033 25.7758L23.8021 25.7778L23.8009 25.7798L24.2167 26.0228ZM28.8366 21.478L28.6 21.0585L28.5989 21.0592L28.5977 21.0599L28.8366 21.478ZM41.3067 21.3277L41.0625 21.7428L41.3067 21.3277ZM45.2506 25.4969L44.8233 25.7195L44.824 25.7207L44.8247 25.722L45.2506 25.4969ZM44.875 38.042L44.4639 37.7911L44.4625 37.7931L44.4614 37.795L44.875 38.042ZM40.2175 42.5493L39.9849 42.1275L39.9839 42.1281L39.9825 42.1288L40.2175 42.5493ZM40.1423 41.9483L40.4002 42.3549L40.4013 42.3543L40.4023 42.3536L40.1423 41.9483ZM42.8842 26.8115L42.4479 27.0152L42.4489 27.0176L42.45 27.0199L42.8842 26.8115ZM39.1656 22.3794L38.8898 22.7743L38.8937 22.7767L38.8972 22.7792L39.1656 22.3794ZM29.2122 21.9663L28.9611 21.5553L29.2122 21.9663ZM26.0196 25.5345L25.5889 25.3191L25.5882 25.3205L25.5875 25.322L26.0196 25.5345ZM26.2825 37.1406L26.7144 36.9275L26.2825 37.1406ZM30.0761 41.5727L29.8076 41.9724L29.809 41.9734L29.8104 41.9744L30.0761 41.5727ZM33.8698 43.6828C31.718 43.6828 29.8266 43.1881 28.1812 42.2104L27.6892 43.0384C29.4993 44.114 31.5642 44.6461 33.8698 44.6461V43.6828ZM28.1838 42.212C26.5564 41.2307 25.2896 39.893 24.3784 38.1904L23.5292 38.6449C24.521 40.498 25.9085 41.9647 27.6865 43.0368L28.1838 42.212ZM24.3784 38.1904C23.4672 36.488 23.0081 34.5889 23.0081 32.4831H22.0449C22.0449 34.7344 22.5373 36.7916 23.5292 38.6449L24.3784 38.1904ZM23.0081 32.4831C23.0081 30.1839 23.5516 28.1153 24.6325 26.2657L23.8009 25.7798C22.6282 27.7864 22.0449 30.0247 22.0449 32.4831H23.0081ZM24.6302 26.2698C25.74 24.4119 27.2202 22.9563 29.0756 21.8961L28.5977 21.0599C26.5968 22.2032 24.9971 23.7774 23.8033 25.7758L24.6302 26.2698ZM29.0732 21.8974C30.9497 20.8389 33.0334 20.3069 35.3345 20.3069V19.3438C32.8781 19.3438 30.6298 19.9135 28.6 21.0585L29.0732 21.8974ZM35.3345 20.3069C37.5406 20.3069 39.4446 20.7911 41.0625 21.7428L41.5509 20.9126C39.7632 19.8612 37.6857 19.3438 35.3345 19.3438V20.3069ZM41.0625 21.7428C42.6861 22.6979 43.9379 24.0204 44.8233 25.7195L45.6774 25.2744C44.7098 23.4177 43.3326 21.9607 41.5509 20.9126L41.0625 21.7428ZM44.8247 25.722C45.7105 27.398 46.1584 29.2975 46.1584 31.4314H47.1218C47.1218 29.1583 46.6433 27.1015 45.6764 25.2719L44.8247 25.722ZM46.1584 31.4314C46.1584 33.8308 45.59 35.9459 44.4639 37.7911L45.286 38.2929C46.5133 36.282 47.1218 33.99 47.1218 31.4314H46.1584ZM44.4614 37.795C43.3529 39.6504 41.8629 41.0923 39.9849 42.1275L40.4498 42.971C42.4784 41.8528 44.0929 40.2898 45.2882 38.289L44.4614 37.795ZM39.9825 42.1288C38.1295 43.1637 36.0948 43.6828 33.8698 43.6828V44.6461C36.2519 44.6461 38.4492 44.0883 40.4522 42.9697L39.9825 42.1288ZM35.5225 43.6694C37.3773 43.6694 39.01 43.2373 40.4002 42.3549L39.8841 41.5417C38.6706 42.3119 37.223 42.7062 35.5225 42.7062V43.6694ZM40.4023 42.3536C41.8123 41.4492 42.8853 40.1864 43.6224 38.581L42.7469 38.1792C42.0818 39.6287 41.1265 40.7447 39.8823 41.5429L40.4023 42.3536ZM43.6224 38.581C44.3574 36.9796 44.7179 35.1435 44.7179 33.0841H43.7549C43.7549 35.0311 43.4141 36.7257 42.7469 38.1792L43.6224 38.581ZM44.7179 33.0841C44.7179 30.716 44.2541 28.5528 43.3182 26.6031L42.45 27.0199C43.3171 28.8263 43.7549 30.8448 43.7549 33.0841H44.7179ZM43.3206 26.6079C42.4099 24.6565 41.1149 23.1089 39.4344 21.9797L38.8972 22.7792C40.4217 23.8034 41.6057 25.2106 42.4479 27.0152L43.3206 26.6079ZM39.4414 21.9846C37.7806 20.8247 35.9058 20.2452 33.8322 20.2452V21.2083C35.7147 21.2083 37.3955 21.7306 38.8898 22.7743L39.4414 21.9846ZM33.8322 20.2452C32.024 20.2452 30.3957 20.6787 28.9611 21.5553L29.4633 22.3772C30.7331 21.6012 32.1847 21.2083 33.8322 21.2083V20.2452ZM28.9611 21.5553C27.5246 22.4332 26.4015 23.6939 25.5889 25.3191L26.4503 25.7499C27.1902 24.2701 28.1955 23.152 29.4633 22.3772L28.9611 21.5553ZM25.5875 25.322C24.7977 26.9278 24.4112 28.7936 24.4112 30.9056H25.3744C25.3744 28.911 25.7391 27.1961 26.4517 25.747L25.5875 25.322ZM24.4112 30.9056C24.4112 33.2515 24.8886 35.4037 25.8506 37.3536L26.7144 36.9275C25.8234 35.1215 25.3744 33.117 25.3744 30.9056H24.4112ZM25.8506 37.3536C26.8111 39.3005 28.1293 40.8449 29.8076 41.9724L30.3447 41.1729C28.8178 40.1471 27.6069 38.7367 26.7144 36.9275L25.8506 37.3536ZM29.8104 41.9744C31.519 43.1046 33.4273 43.6694 35.5225 43.6694V42.7062C33.611 42.7062 31.8884 42.1942 30.3418 41.171L29.8104 41.9744Z" fill="#666666"/>
<path d="M53.2931 43.9053V34.1428H59.7114L65.9608 43.9053H69.2374L62.6167 33.7036C65.4541 33.0618 68.1904 30.8661 68.1904 26.9476C68.1904 22.3196 65.1162 19.7861 59.7114 19.7861H50.4219V43.9053H53.2931ZM53.2931 31.7106V22.2183H59.5424C63.1908 22.2183 65.2514 23.9073 65.2514 26.9476C65.2514 30.0891 63.1908 31.7106 59.5424 31.7106H53.2931Z" fill="#666666"/>
<path d="M53.2937 43.9001V43.9535H53.3471V43.9001H53.2937ZM53.2937 34.1376V34.0842H53.2403V34.1376H53.2937ZM59.7121 34.1376L59.7571 34.1088L59.7413 34.0842H59.7121V34.1376ZM65.9615 43.9001L65.9165 43.9289L65.9324 43.9535H65.9615V43.9001ZM69.2382 43.9001V43.9535H69.3365L69.2831 43.871L69.2382 43.9001ZM62.6174 33.6984L62.6055 33.6464L62.5306 33.6633L62.5724 33.7275L62.6174 33.6984ZM50.4225 19.7809V19.7275H50.3691V19.7809H50.4225ZM50.4225 43.9001H50.3691V43.9535H50.4225V43.9001ZM53.2937 31.7054H53.2403V31.7588H53.2937V31.7054ZM53.2937 22.2131V22.1597H53.2403V22.2131H53.2937ZM53.3471 43.9001V34.1376H53.2403V43.9001H53.3471ZM53.2937 34.191H59.7121V34.0842H53.2937V34.191ZM59.6672 34.1664L65.9165 43.9289L66.0065 43.8713L59.7571 34.1088L59.6672 34.1664ZM65.9615 43.9535H69.2382V43.8467H65.9615V43.9535ZM69.2831 43.871L62.662 33.6694L62.5724 33.7275L69.1935 43.9292L69.2831 43.871ZM62.629 33.7505C65.484 33.1047 68.2446 30.8923 68.2446 26.9424H68.1378C68.1378 30.8295 65.4257 33.0085 62.6055 33.6464L62.629 33.7505ZM68.2446 26.9424C68.2446 24.6158 67.4712 22.8092 66.0128 21.5853C64.5558 20.3626 62.4221 19.7275 59.7121 19.7275V19.8343C62.407 19.8343 64.5129 20.466 65.9439 21.6671C67.3739 22.8669 68.1378 24.641 68.1378 26.9424H68.2446ZM59.7121 19.7275H50.4225V19.8343H59.7121V19.7275ZM50.3691 19.7809V43.9001H50.476V19.7809H50.3691ZM50.4225 43.9535H53.2937V43.8467H50.4225V43.9535ZM53.3471 31.7054V22.2131H53.2403V31.7054H53.3471ZM53.2937 22.2665H59.5431V22.1597H53.2937V22.2665ZM59.5431 22.2665C61.3599 22.2665 62.7734 22.6872 63.7319 23.4788C64.6886 24.2692 65.1987 25.4352 65.1987 26.9424H65.3056C65.3056 25.4093 64.7856 24.2107 63.7997 23.3965C62.8159 22.5836 61.3747 22.1597 59.5431 22.1597V22.2665ZM65.1987 26.9424C65.1987 28.5007 64.6882 29.6748 63.7319 30.4607C62.7738 31.2481 61.3606 31.652 59.5431 31.652V31.7588C61.3743 31.7588 62.8156 31.352 63.7997 30.5432C64.7856 29.733 65.3056 28.5256 65.3056 26.9424H65.1987ZM59.5431 31.652H53.2937V31.7588H59.5431V31.652Z" fill="#666666"/>
<path d="M76.0806 19.7861H72.5V43.9053H75.3375V23.3331H75.4049L89.1197 43.9053H91.8223V19.7861H89.0185V39.0409H88.9511L76.0806 19.7861Z" fill="#666666"/>
<path d="M76.0812 19.7809L76.1255 19.7513L76.1097 19.7275H76.0812V19.7809ZM72.5007 19.7809V19.7275H72.4473V19.7809H72.5007ZM72.5007 43.9001H72.4473V43.9535H72.5007V43.9001ZM75.3381 43.9001V43.9535H75.3915V43.9001H75.3381ZM75.3381 23.3279V23.2745H75.2847V23.3279H75.3381ZM75.4056 23.3279L75.4502 23.2983L75.434 23.2745H75.4056V23.3279ZM89.1203 43.9001L89.0761 43.9297L89.0919 43.9535H89.1203V43.9001ZM91.8229 43.9001V43.9535H91.8763V43.9001H91.8229ZM91.8229 19.7809H91.8763V19.7275H91.8229V19.7809ZM89.0191 19.7809V19.7275H88.9657V19.7809H89.0191ZM89.0191 39.0357V39.0891H89.0725V39.0357H89.0191ZM88.9517 39.0357L88.9071 39.0654L88.9229 39.0891H88.9517V39.0357ZM76.0812 19.7275H72.5007V19.8343H76.0812V19.7275ZM72.4473 19.7809V43.9001H72.5541V19.7809H72.4473ZM72.5007 43.9535H75.3381V43.8467H72.5007V43.9535ZM75.3915 43.9001V23.3279H75.2847V43.9001H75.3915ZM75.3381 23.3813H75.4056V23.2745H75.3381V23.3813ZM75.3613 23.3575L89.0761 43.9297L89.1649 43.8705L75.4502 23.2983L75.3613 23.3575ZM89.1203 43.9535H91.8229V43.8467H89.1203V43.9535ZM91.8763 43.9001V19.7809H91.7695V43.9001H91.8763ZM91.8229 19.7275H89.0191V19.8343H91.8229V19.7275ZM88.9657 19.7809V39.0357H89.0725V19.7809H88.9657ZM89.0191 38.9824H88.9517V39.0891H89.0191V38.9824ZM88.996 39.0061L76.1255 19.7513L76.037 19.8106L88.9071 39.0654L88.996 39.0061Z" fill="#666666"/>
<path d="M11.2923 43.9053C16.6296 43.9053 19.7711 41.5745 19.7711 37.1492C19.7711 34.3117 17.9132 32.116 14.9405 31.3728C17.0011 30.7647 18.6902 28.4677 18.6902 26.2382C18.6902 22.0156 15.5824 19.7861 10.2113 19.7861H1.73242V43.9053H11.2923ZM4.60374 30.4269V22.1508H10.414C13.9947 22.1508 15.7513 23.6033 15.7513 26.272C15.7513 28.9068 13.9609 30.4269 10.3802 30.4269H4.60374ZM4.60374 32.6902H11.0896C14.7716 32.6902 16.866 34.3792 16.866 37.1492C16.866 39.9192 14.8392 41.5407 11.1571 41.5407H4.60374V32.6902Z" fill="#666666"/>
<path d="M14.9412 31.3676L14.9261 31.3164L14.7381 31.3719L14.9282 31.4194L14.9412 31.3676ZM1.73308 19.7809V19.7275H1.67969V19.7809H1.73308ZM1.73308 43.9001H1.67969V43.9535H1.73308V43.9001ZM4.6044 30.4218H4.55103V30.4751H4.6044V30.4218ZM4.6044 22.1456V22.0922H4.55103V22.1456H4.6044ZM4.6044 32.685V32.6316H4.55103V32.685H4.6044ZM4.6044 41.5355H4.55103V41.5889H4.6044V41.5355ZM11.2929 43.9535C13.9683 43.9535 16.1014 43.3695 17.5667 42.2236C19.0341 41.0761 19.8252 39.3705 19.8252 37.144H19.7184C19.7184 39.3428 18.9387 41.0152 17.501 42.1395C16.0612 43.2653 13.9548 43.8467 11.2929 43.8467V43.9535ZM19.8252 37.144C19.8252 34.2789 17.9475 32.0641 14.9542 31.3158L14.9282 31.4194C17.8803 32.1574 19.7184 34.3341 19.7184 37.144H19.8252ZM14.9563 31.4188C15.9999 31.1108 16.9465 30.3764 17.6318 29.4399C18.3173 28.5033 18.7442 27.3608 18.7442 26.233H18.6374C18.6374 27.3347 18.2199 28.4555 17.5457 29.3768C16.8714 30.2982 15.9431 31.0163 14.9261 31.3164L14.9563 31.4188ZM18.7442 26.233C18.7442 24.1071 17.961 22.4773 16.4976 21.3808C15.0365 20.286 12.9037 19.7275 10.2119 19.7275V19.8343C12.8913 19.8343 14.9979 20.3906 16.4335 21.4662C17.8668 22.5401 18.6374 24.1364 18.6374 26.233H18.7442ZM10.2119 19.7275H1.73308V19.8343H10.2119V19.7275ZM1.67969 19.7809V43.9001H1.78647V19.7809H1.67969ZM1.73308 43.9535H11.2929V43.8467H1.73308V43.9535ZM4.6578 30.4218V22.1456H4.55103V30.4218H4.6578ZM4.6044 22.1989H10.4146V22.0922H4.6044V22.1989ZM10.4146 22.1989C12.1991 22.1989 13.5196 22.5611 14.3931 23.2474C15.2642 23.9319 15.6985 24.9451 15.6985 26.2668H15.8053C15.8053 24.9198 15.3613 23.8724 14.4591 23.1635C13.559 22.4563 12.2109 22.0922 10.4146 22.0922V22.1989ZM15.6985 26.2668C15.6985 27.5711 15.2561 28.5931 14.376 29.2905C13.4939 29.9895 12.1648 30.3684 10.3808 30.3684V30.4751C12.1776 30.4751 13.5341 30.0939 14.4423 29.3742C15.3526 28.6528 15.8053 27.5973 15.8053 26.2668H15.6985ZM10.3808 30.3684H4.6044V30.4751H10.3808V30.3684ZM4.6044 32.7384H11.0902V32.6316H4.6044V32.7384ZM11.0902 32.7384C12.924 32.7384 14.355 33.1591 15.3264 33.9179C16.2961 34.6753 16.8133 35.7739 16.8133 37.144H16.9201C16.9201 35.7442 16.3901 34.6133 15.3921 33.8337C14.3958 33.0555 12.9386 32.6316 11.0902 32.6316V32.7384ZM16.8133 37.144C16.8133 38.5147 16.3126 39.5961 15.3603 40.3363C14.406 41.0781 12.992 41.4821 11.1578 41.4821V41.5889C13.0057 41.5889 14.4462 41.1821 15.4258 40.4207C16.4074 39.6577 16.9201 38.5434 16.9201 37.144H16.8133ZM11.1578 41.4821H4.6044V41.5889H11.1578V41.4821ZM4.6578 41.5355V32.685H4.55103V41.5355H4.6578Z" fill="#666666"/>
</svg>
