<svg width="60" height="54" viewBox="0 0 60 54" fill="none" xmlns="http://www.w3.org/2000/svg">
<path d="M30.0003 16.4899V38.9875M30.0003 16.4899L31.4672 15.9395C34.8052 14.6868 38.5288 14.6868 41.8668 15.9395C42.7527 16.2719 43.3337 17.0769 43.3337 17.9721V36.4396C43.3337 37.6688 42.0104 38.5094 40.7939 38.0528C38.1447 37.0587 35.1893 37.0587 32.5401 38.0528L30.0186 38.9991C30.0099 39.0024 30.0003 38.9963 30.0003 38.9875M30.0003 16.4899L28.5335 15.9395C25.1955 14.6868 21.4718 14.6868 18.1338 15.9395C17.2479 16.2719 16.667 17.0769 16.667 17.9721V36.4396C16.667 37.6688 17.9903 38.5094 19.2068 38.0528C21.856 37.0587 24.8113 37.0587 27.4605 38.0528L29.982 38.9991C29.9908 39.0024 30.0003 38.9963 30.0003 38.9875" stroke="#333333"/>
</svg>
